Coordinates
version=1
nRows=11
nColumns=42
inDegrees=yes

Units are S.I. units (second, meters, Newtons, ...)
If the header above contains a line with 'inDegrees', this indicates whether rotational values are in degrees (yes) or radians (no).

endheader
time	pelvis_tilt	pelvis_list	pelvis_rotation	pelvis_tx	pelvis_ty	pelvis_tz	hip_flexion_r	hip_adduction_r	hip_rotation_r	knee_angle_r	knee_adduction_r	knee_angle_r_beta	ankle_angle_r	subtalar_angle_r	mtp_angle_r	hip_flexion_l	hip_adduction_l	hip_rotation_l	knee_angle_l	knee_adduction_l	knee_angle_l_beta	ankle_angle_l	subtalar_angle_l	mtp_angle_l	lumbar_extension	lumbar_bending	lumbar_rotation	arm_flex_r	arm_add_r	arm_rot_r	elbow_flex_r	pro_sup_r	wrist_flex_r	wrist_dev_r	arm_flex_l	arm_add_l	arm_rot_l	elbow_flex_l	pro_sup_l	wrist_flex_l	wrist_dev_l
      1.25000000	      9.69875237	     -0.53858694	     -0.72721785	      0.83327340	      0.83196430	     -0.29199646	     -5.25566591	     -2.16097064	    -35.04191166	     24.70722095	     -6.14724503	      0.43122235	     27.78689945	     34.55857769	     -7.50065601	     21.20395767	     -5.28512041	    -11.99627832	     55.51493282	     -4.76322354	      0.96891836	     10.86460981	    -14.76028606	     -7.50065601	    -22.19838260	      1.93970636	      5.33760583	      3.66268867	    -16.35905036	     -5.83871174	     37.87400611	     90.00000001	      0.00000000	      0.00000000	     -4.28699957	     -8.35139655	    -16.88093158	     40.38363244	     90.00000001	      0.00000000	      0.00000000
      1.26000000	      9.40679713	     -0.69569394	     -1.33459358	      0.84768820	      0.83077631	     -0.29101355	     -6.46077841	     -2.11255501	    -35.40853559	     24.02271266	     -5.80688331	      0.41927543	     27.89658346	     34.56217737	     -7.50064499	     22.36246637	     -5.49785688	    -12.99234205	     51.92605221	     -4.57930046	      0.90628058	     11.16036469	    -14.54278552	     -7.50064499	    -21.78188881	      1.82894580	      6.47797334	      4.07607106	    -16.68615337	     -5.68306036	     38.30322336	     90.00000001	      0.00000000	      0.00000000	     -5.29075779	     -8.47500482	    -17.40047446	     39.74669418	     90.00000001	      0.00000000	      0.00000000
      1.27000000	      9.38539654	     -0.74289090	     -1.99471429	      0.86240474	      0.82942911	     -0.29039786	     -7.98992352	     -2.60745834	    -36.38329317	     23.64463304	     -5.12370133	      0.41267670	     28.39179007	     36.36102476	     -7.50056181	     23.04473845	     -5.66998059	    -15.08527636	     48.06651250	     -4.96424911	      0.83891890	     12.09457534	    -12.75788225	     -7.50056181	    -21.63389277	      1.64629490	      7.55277039	      4.08714829	    -17.75461490	     -3.10953581	     39.71133203	     90.00000001	      0.00000000	      0.00000000	     -5.05058527	     -7.61014020	    -23.14805972	     37.34794576	     90.00000001	      0.00000000	      0.00000000
      1.28000000	      9.24139626	     -0.92550091	     -2.58816444	      0.87702806	      0.82770052	     -0.28976461	     -9.36679251	     -2.69059322	    -36.63012660	     23.14354857	     -4.56996719	      0.40393112	     28.61485600	     36.56665663	     -7.50054601	     23.72257795	     -5.96980528	    -16.61626232	     44.11539613	     -4.92014831	      0.76995891	     12.37608173	    -11.92313659	     -7.50054601	    -21.38452506	      1.61486561	      8.59386497	      4.60686192	    -18.15832447	     -2.91604996	     40.04916123	     90.00000001	      0.00000000	      0.00000000	     -6.04931339	     -7.76770777	    -23.78945799	     36.68719924	     90.00000001	      0.00000000	      0.00000000
      1.29000000	      9.00971032	     -1.27444261	     -3.18475627	      0.89179305	      0.82544163	     -0.28919797	    -10.47969492	     -2.60443115	    -37.04653610	     22.90160714	     -4.32844904	      0.39970845	     28.86603931	     36.98252663	     -7.50047719	     24.50675216	     -6.65565239	    -19.37237204	     40.26933490	     -5.38901460	      0.70283248	     13.98315127	     -7.45155818	     -7.50047719	    -21.03336362	      1.79513024	      9.57810462	      5.00731011	    -18.98856258	     -1.35462656	     40.76329882	     90.00000001	      0.00000000	      0.00000000	     -6.40314613	     -7.37227390	    -27.69935043	     35.23844285	     90.00000001	      0.00000000	      0.00000000
      1.30000000	      8.79240874	     -1.56948662	     -3.75667590	      0.90659476	      0.82302119	     -0.28877321	    -11.51345425	     -2.63934402	    -37.39247697	     22.87584436	     -4.13656746	      0.39925880	     29.22499506	     37.30596119	     -7.50044044	     25.13405847	     -7.26412916	    -21.92636148	     36.49054700	     -5.50660256	      0.63688019	     15.17501815	     -3.33206565	     -7.50044044	    -20.71142024	      1.93507008	     10.49832566	      5.56438215	    -19.56300435	     -0.68731994	     41.18026710	     90.00000001	      0.00000000	      0.00000000	     -7.05948695	     -7.38297132	    -29.63690628	     34.06583849	     90.00000001	      0.00000000	      0.00000000
      1.31000000	      8.65123314	     -1.94774221	     -4.26469566	      0.92156476	      0.82054495	     -0.28841085	    -12.66467844	     -2.49127844	    -37.41577365	     22.72372562	     -4.00679524	      0.39660383	     29.32972275	     37.37433759	     -7.50039238	     25.61892065	     -8.05030217	    -24.76582070	     32.99475138	     -5.49540975	      0.57586705	     16.49938659	      2.12054859	     -7.50039238	    -20.48222765	      2.17322697	     11.30079667	      6.12029612	    -20.18932403	      0.30328578	     41.66607177	     90.00000001	      0.00000000	      0.00000000	     -7.69177166	     -7.20045839	    -32.56557945	     33.17589468	     90.00000001	      0.00000000	      0.00000000
      1.32000000	      8.50881351	     -2.29028470	     -4.75819692	      0.93663182	      0.81795806	     -0.28812488	    -13.69656822	     -2.43772731	    -37.43111703	     22.79058639	     -4.00857742	      0.39777077	     29.45417316	     37.51177901	     -7.50035545	     26.04308297	     -8.83294304	    -27.50048671	     29.91880666	     -5.20831487	      0.52218168	     17.54576032	      7.54644337	     -7.50035545	    -20.24972091	      2.37634204	     11.99460336	      6.71171387	    -20.74473058	      1.07747593	     42.02720204	     90.00000001	      0.00000000	      0.00000000	     -8.40522128	     -7.18895970	    -35.00314600	     32.19740337	     90.00000001	      0.00000000	      0.00000000
      1.33000000	      8.45224264	     -2.56787561	     -5.23546558	      0.95178510	      0.81546522	     -0.28796531	    -14.75654386	     -2.53643277	    -37.37324949	     22.98360495	     -4.03210521	      0.40113958	     29.49616636	     37.64506613	     -7.50032527	     26.31574678	     -9.50893176	    -30.02769180	     27.33235344	     -4.76834923	      0.47703956	     18.35472747	     12.51222300	     -7.50032527	    -20.11495508	      2.51729213	     12.58250349	      7.37354491	    -21.21274016	      1.79087622	     42.37251880	     90.00000001	      0.00000000	      0.00000000	     -9.09320148	     -7.16965017	    -37.35164122	     31.29073084	     90.00000001	      0.00000000	      0.00000000
      1.34000000	      8.47181992	     -2.73160283	     -5.63508188	      0.96692131	      0.81320455	     -0.28792749	    -15.85904184	     -2.74574058	    -37.11732800	     23.19749455	     -4.08250698	      0.40487266	     29.35824953	     37.71288213	     -7.50031699	     26.30584729	     -9.75857167	    -30.95539103	     24.97038205	     -3.93428031	      0.43581538	     18.28285263	     14.70847191	     -7.50031699	    -20.09364720	      2.51580606	     13.01939405	      8.02813746	    -21.54508511	      1.97792655	     42.68783535	     90.00000001	      0.00000000	      0.00000000	    -10.04958367	     -7.38347348	    -38.31717971	     30.71702280	     90.00000001	      0.00000000	      0.00000000
      1.35000000	      8.57568087	     -2.98008917	     -6.10730190	      0.98239379	      0.81092373	     -0.28789746	    -16.97938789	     -2.92869230	    -36.75480206	     23.50768728	     -4.28646460	      0.41028654	     29.12006445	     37.82059991	     -7.50028932	     26.55078883	    -10.49905394	    -33.57039270	     23.98522307	     -3.74629977	      0.41862111	     19.16259540	     19.70424944	     -7.50028932	    -20.12241482	      2.60390670	     13.43157759	      8.69558208	    -22.04264245	      2.97089595	     43.07335408	     90.00000001	      0.00000000	      0.00000000	    -10.48878987	     -7.31742005	    -41.73579452	     29.59139791	     90.00000001	      0.00000000	      0.00000000
